PathFileType	4	(X/Y/Z)	C:\Users\86182\Documents\cortex\Trimmed_M4_L5.trc
DataRate	CameraRate	NumFrames	NumMarkers	Units	OrigDataRate	OrigDataStartFrame	OrigNumFrames
100.00	100.00	       98	2	mm	100.00	721	       901
Frame#	Time	gripper			box			
		X1	Y1	Z1	X2	Y2	Z2	

721	7.200	276.27496	151.28850	292.49811	276.55551	149.49896	156.63353	
722	7.210	276.27640	151.28896	292.49939	276.55911	149.49626	156.63332	
723	7.220	276.27768	151.28937	292.50055	276.56165	149.49428	156.63319	
724	7.230	276.27881	151.28972	292.50159	276.56244	149.49362	156.63321	
725	7.240	276.27963	151.29001	292.50226	276.56125	149.49448	156.63336	
726	7.250	276.28003	151.29016	292.50244	276.55844	149.49657	156.63365	
727	7.260	276.27994	151.29018	292.50220	276.55472	149.49937	156.63400	
728	7.270	276.27939	151.29001	292.50159	276.55090	149.50227	156.63437	
729	7.280	276.27826	151.28963	292.50067	276.54764	149.50479	156.63467	
730	7.290	276.27643	151.28897	292.49939	276.54529	149.50659	156.63486	
731	7.300	276.27399	151.28806	292.49789	276.54410	149.50749	156.63490	
732	7.310	276.27106	151.28691	292.49628	276.54407	149.50745	156.63481	
733	7.320	276.26801	151.28571	292.49466	276.54495	149.50665	156.63464	
734	7.330	276.26520	151.28459	292.49319	276.54630	149.50548	156.63446	
735	7.340	276.26324	151.28384	292.49210	276.54761	149.50432	156.63431	
736	7.350	276.26242	151.28357	292.49136	276.54837	149.50356	156.63423	
737	7.360	276.26257	151.28374	292.49097	276.54810	149.50354	156.63425	
738	7.370	276.26328	151.28415	292.49072	276.54666	149.50439	156.63438	
739	7.380	276.26410	151.28462	292.49048	276.54462	149.50577	156.63458	
740	7.390	276.26474	151.28500	292.49017	276.54282	149.50699	156.63478	
741	7.400	276.26520	151.28529	292.48990	276.54193	149.50760	156.63495	
742	7.410	276.26572	151.28555	292.48987	276.54211	149.50746	156.63504	
743	7.420	276.26645	151.28586	292.49023	276.54312	149.50677	156.63510	
744	7.430	276.26749	151.28622	292.49106	276.54431	149.50594	156.63512	
745	7.440	276.26889	151.28667	292.49225	276.54474	149.50555	156.63515	
746	7.450	276.27051	151.28716	292.49377	276.54370	149.50613	156.63521	
747	7.460	276.27225	151.28769	292.49548	276.54092	149.50792	156.63535	
748	7.470	276.27411	151.28824	292.49731	276.53683	149.51076	156.63553	
749	7.480	276.27603	151.28882	292.49918	276.53244	149.51399	156.63573	
750	7.490	276.27789	151.28941	292.50085	276.52887	149.51685	156.63583	
751	7.500	276.27951	151.28995	292.50214	276.52667	149.51886	156.63585	
752	7.510	276.28088	151.29045	292.50311	276.52573	149.52005	156.63579	
753	7.520	276.28220	151.29094	292.50394	276.52557	149.52068	156.63570	
754	7.530	276.28342	151.29140	292.50476	276.52557	149.52112	156.63560	
755	7.540	276.28436	151.29170	292.50549	276.52539	149.52165	156.63554	
756	7.550	276.28464	151.29178	292.50586	276.52499	149.52225	156.63553	
757	7.560	276.28412	151.29152	292.50580	276.52472	149.52267	156.63550	
758	7.570	276.28299	151.29102	292.50543	276.52484	149.52272	156.63548	
759	7.580	276.28189	151.29048	292.50543	276.52533	149.52237	156.63544	
760	7.590	276.28156	151.29013	292.50629	276.52612	149.52171	156.63539	
761	7.600	276.28241	151.29013	292.50824	276.52722	149.52080	156.63533	
762	7.610	276.28412	151.29047	292.51080	276.52884	149.51949	156.63525	
763	7.620	276.28601	151.29092	292.51318	276.53107	149.51770	156.63512	
764	7.630	276.28735	151.29132	292.51453	276.53375	149.51559	156.63496	
765	7.640	276.28757	151.29146	292.51440	276.53619	149.51370	156.63484	
766	7.650	276.28641	151.29124	292.51260	276.53738	149.51271	156.63481	
767	7.660	276.28403	151.29070	292.50952	276.53662	149.51320	156.63493	
768	7.670	276.28098	151.28992	292.50586	276.53391	149.51514	156.63521	
769	7.680	276.27789	151.28911	292.50232	276.52988	149.51797	156.63559	
770	7.690	276.27521	151.28838	292.49933	276.52551	149.52097	156.63603	
771	7.700	276.27313	151.28780	292.49704	276.52182	149.52342	156.63643	
772	7.710	276.27182	151.28746	292.49551	276.51984	149.52467	156.63673	
773	7.720	276.27142	151.28740	292.49487	276.52023	149.52428	156.63689	
774	7.730	276.27216	151.28769	292.49524	276.52304	149.52228	156.63687	
775	7.740	276.27405	151.28833	292.49673	276.52737	149.51923	156.63670	
776	7.750	276.27701	151.28928	292.49936	276.53198	149.51607	156.63641	
777	7.760	276.28085	151.29047	292.50293	276.53571	149.51353	156.63603	
778	7.770	276.28525	151.29178	292.50723	276.53833	149.51175	156.63562	
779	7.780	276.28979	151.29311	292.51184	276.54041	149.51025	156.63524	
780	7.790	276.29410	151.29434	292.51633	276.54248	149.50854	156.63493	
781	7.800	276.29764	151.29536	292.51996	276.54462	149.50661	156.63472	
782	7.810	276.29984	151.29604	292.52216	276.54642	149.50482	156.63461	
783	7.820	276.30051	151.29625	292.52264	276.54718	149.50381	156.63463	
784	7.830	276.29974	151.29607	292.52176	276.54633	149.50417	156.63475	
785	7.840	276.29794	151.29556	292.51981	276.54376	149.50600	156.63495	
786	7.850	276.29529	151.29480	292.51703	276.54001	149.50888	156.63516	
787	7.860	276.29202	151.29385	292.51361	276.53586	149.51218	156.63536	
788	7.870	276.28830	151.29277	292.50986	276.53195	149.51535	156.63551	
789	7.880	276.28455	151.29164	292.50616	276.52911	149.51770	156.63562	
790	7.890	276.28110	151.29059	292.50299	276.52817	149.51863	156.63560	
791	7.900	276.27829	151.28967	292.50055	276.52930	149.51801	156.63547	
792	7.910	276.27631	151.28900	292.49899	276.53180	149.51636	156.63524	
793	7.920	276.27524	151.28859	292.49835	276.53467	149.51440	156.63501	
794	7.930	276.27490	151.28842	292.49835	276.53741	149.51242	156.63481	
795	7.940	276.27478	151.28835	292.49847	276.54016	149.51025	156.63464	
796	7.950	276.27441	151.28822	292.49817	276.54312	149.50780	156.63449	
797	7.960	276.27362	151.28799	292.49731	276.54623	149.50517	156.63432	
798	7.970	276.27252	151.28769	292.49612	276.54935	149.50259	156.63416	
799	7.980	276.27136	151.28737	292.49487	276.55197	149.50047	156.63402	
800	7.990	276.27036	151.28708	292.49377	276.55344	149.49922	156.63394	
801	8.000	276.26962	151.28688	292.49304	276.55331	149.49922	156.63396	
802	8.010	276.26923	151.28674	292.49268	276.55154	149.50055	156.63408	
803	8.020	276.26904	151.28667	292.49261	276.54868	149.50282	156.63428	
804	8.030	276.26889	151.28658	292.49271	276.54553	149.50539	156.63449	
805	8.040	276.26852	151.28639	292.49271	276.54276	149.50778	156.63472	
806	8.050	276.26791	151.28610	292.49252	276.54074	149.50969	156.63490	
807	8.060	276.26727	151.28583	292.49231	276.53976	149.51086	156.63507	
808	8.070	276.26700	151.28571	292.49225	276.53976	149.51120	156.63518	
809	8.080	276.26733	151.28584	292.49246	276.54068	149.51068	156.63525	
810	8.090	276.26816	151.28616	292.49289	276.54242	149.50931	156.63522	
811	8.100	276.26917	151.28656	292.49347	276.54495	149.50713	156.63506	
812	8.110	276.27023	151.28696	292.49414	276.54828	149.50424	156.63480	
813	8.120	276.27139	151.28734	292.49512	276.55219	149.50098	156.63448	
814	8.130	276.27304	151.28784	292.49667	276.55612	149.49779	156.63417	
815	8.140	276.27554	151.28857	292.49921	276.55927	149.49536	156.63396	
816	8.150	276.27905	151.28961	292.50275	276.56104	149.49411	156.63388	
817	8.160	276.28323	151.29085	292.50690	276.56140	149.49403	156.63388	
818	8.170	276.28741	151.29210	292.51089	276.56079	149.49474	156.63391	
